<svg width="69" height="70" viewBox="0 0 69 70" fill="none" xmlns="http://www.w3.org/2000/svg">
<rect y="0.456055" width="69" height="69" rx="34.5" fill="#902A9C"/>
<path d="M36.3667 42.1827H33.02C30.8333 42.1827 29.06 40.3427 29.06 38.0761C29.06 37.5294 29.5133 37.0761 30.06 37.0761C30.6067 37.0761 31.06 37.5294 31.06 38.0761C31.06 39.2361 31.94 40.1827 33.02 40.1827H36.3667C37.2333 40.1827 37.9533 39.4094 37.9533 38.4761C37.9533 37.3161 37.54 37.0894 36.86 36.8494L31.4867 34.9561C30.4467 34.5961 29.0467 33.8227 29.0467 31.4361C29.0467 29.3827 30.66 27.7294 32.6333 27.7294H35.98C38.1667 27.7294 39.94 29.5694 39.94 31.8361C39.94 32.3827 39.4867 32.8361 38.94 32.8361C38.3933 32.8361 37.94 32.3827 37.94 31.8361C37.94 30.6761 37.06 29.7294 35.98 29.7294H32.6333C31.7667 29.7294 31.0467 30.5027 31.0467 31.4361C31.0467 32.5961 31.46 32.8227 32.14 33.0627L37.5133 34.9561C38.5533 35.3161 39.9533 36.0894 39.9533 38.4761C39.94 40.5161 38.34 42.1827 36.3667 42.1827Z" fill="white"/>
<path d="M34.5 43.9561C33.9533 43.9561 33.5 43.5027 33.5 42.9561V26.9561C33.5 26.4094 33.9533 25.9561 34.5 25.9561C35.0467 25.9561 35.5 26.4094 35.5 26.9561V42.9561C35.5 43.5027 35.0467 43.9561 34.5 43.9561Z" fill="white"/>
<path d="M34.5 49.2894C26.5933 49.2894 20.1667 42.8627 20.1667 34.9561C20.1667 27.0494 26.5933 20.6227 34.5 20.6227C42.4067 20.6227 48.8333 27.0494 48.8333 34.9561C48.8333 42.8627 42.4067 49.2894 34.5 49.2894ZM34.5 22.6227C27.7 22.6227 22.1667 28.1561 22.1667 34.9561C22.1667 41.7561 27.7 47.2894 34.5 47.2894C41.3 47.2894 46.8333 41.7561 46.8333 34.9561C46.8333 28.1561 41.3 22.6227 34.5 22.6227Z" fill="white"/>
</svg>
