<svg width="70" height="70" viewBox="0 0 70 70" fill="none" xmlns="http://www.w3.org/2000/svg">
<rect x="0.0878906" y="0.0941162" width="69" height="69" rx="34.5" fill="#902A9C"/>
<path d="M47.9212 30.9275H21.2546C20.7079 30.9275 20.2546 30.4742 20.2546 29.9275C20.2546 29.3808 20.7079 28.9275 21.2546 28.9275H47.9212C48.4679 28.9275 48.9212 29.3808 48.9212 29.9275C48.9212 30.4742 48.4679 30.9275 47.9212 30.9275Z" fill="white"/>
<path d="M29.2546 41.5941H26.5879C26.0412 41.5941 25.5879 41.1408 25.5879 40.5941C25.5879 40.0474 26.0412 39.5941 26.5879 39.5941H29.2546C29.8012 39.5941 30.2546 40.0474 30.2546 40.5941C30.2546 41.1408 29.8012 41.5941 29.2546 41.5941Z" fill="white"/>
<path d="M37.9212 41.5941H32.5879C32.0412 41.5941 31.5879 41.1408 31.5879 40.5941C31.5879 40.0474 32.0412 39.5941 32.5879 39.5941H37.9212C38.4679 39.5941 38.9212 40.0474 38.9212 40.5941C38.9212 41.1408 38.4679 41.5941 37.9212 41.5941Z" fill="white"/>
<path d="M42.0012 46.9274H27.1746C21.8679 46.9274 20.2546 45.3274 20.2546 40.0741V29.1141C20.2546 23.8607 21.8679 22.2607 27.1746 22.2607H41.9879C47.2946 22.2607 48.9079 23.8607 48.9079 29.1141V40.0607C48.9212 45.3274 47.3079 46.9274 42.0012 46.9274ZM27.1746 24.2607C22.9879 24.2607 22.2546 24.9807 22.2546 29.1141V40.0607C22.2546 44.1941 22.9879 44.9141 27.1746 44.9141H41.9879C46.1746 44.9141 46.9079 44.1941 46.9079 40.0607V29.1141C46.9079 24.9807 46.1746 24.2607 41.9879 24.2607H27.1746Z" fill="white"/>
</svg>
