<svg width="28" height="38" viewBox="0 0 28 38" fill="none" xmlns="http://www.w3.org/2000/svg">
<g clip-path="url(#clip0_151_34585)">
<path d="M20.7093 0.649434C17.2906 -0.258221 13.6646 -0.0220458 10.3955 1.32122C7.12639 2.66449 4.39737 5.03955 2.63295 8.07694C0.868529 11.1143 0.167632 14.6438 0.639283 18.1163C1.11093 21.5888 2.72869 24.8097 5.24091 27.2779L23.1272 9.57571C23.796 8.91325 24.2769 8.08823 24.5215 7.18354C24.7662 6.27885 24.766 5.32636 24.521 4.42177C24.2759 3.51719 23.7947 2.69237 23.1256 2.03019C22.4566 1.36802 21.6232 0.891818 20.7093 0.649434Z" fill="#8333C5"/>
<path d="M7.28704 36.5699C10.7079 37.4805 14.3369 37.2458 17.609 35.9024C20.881 34.5589 23.6125 32.1821 25.3779 29.1421C27.1434 26.1021 27.8438 22.5696 27.37 19.0946C26.8963 15.6196 25.275 12.3972 22.7586 9.9292L4.87223 27.6437C4.20343 28.3059 3.72245 29.1307 3.47762 30.0352C3.23279 30.9397 3.23272 31.8921 3.47742 32.7966C3.72212 33.7011 4.20298 34.526 4.87169 35.1883C5.5404 35.8507 6.37341 36.3272 7.28704 36.5699Z" fill="#8233C5"/>
<path style="mix-blend-mode:multiply" d="M22.7586 9.9292L4.87223 27.6437C4.20343 28.3059 3.72245 29.1307 3.47762 30.0352C3.23279 30.9397 3.23272 31.8921 3.47742 32.7966C3.72212 33.7011 4.20298 34.526 4.87169 35.1883C5.5404 35.8507 6.37341 36.3272 7.28704 36.5699C9.19971 37.0749 11.19 37.2267 13.1582 37.0179C5.31552 29.5492 22.7586 9.9292 22.7586 9.9292Z" fill="#8B3AD2"/>
<g style="mix-blend-mode:multiply">
<path style="mix-blend-mode:multiply" d="M6.95884 36.4718C4.42003 28.6901 19.6684 13.0193 22.3591 10.3374L4.87262 27.6438C4.22431 28.2856 3.75211 29.0806 3.50069 29.9535C3.24927 30.8263 3.22693 31.7482 3.43578 32.632C3.64464 33.5158 4.07779 34.3323 4.69426 35.0042C5.31074 35.6761 6.09017 36.1812 6.95884 36.4718Z" fill="#8B3AD2"/>
<path style="mix-blend-mode:multiply" d="M22.7003 9.99995C22.7189 9.97952 22.7386 9.96006 22.7592 9.94165L22.7003 9.99995Z" fill="url(#paint0_linear_151_34585)"/>
</g>
<path style="mix-blend-mode:screen" d="M24.4391 7.47461L5.21977 27.2664L23.1278 9.57653C23.726 8.98786 24.1753 8.26767 24.4391 7.47461Z" fill="url(#paint1_radial_151_34585)"/>
</g>
<defs>
<linearGradient id="paint0_linear_151_34585" x1="26.1722" y1="3.37819" x2="11.0941" y2="32.8226" gradientUnits="userSpaceOnUse">
<stop stop-color="#F3FBFB"/>
<stop offset="0.36" stop-color="#97C4C5"/>
<stop offset="0.8" stop-color="#E2EEEF"/>
<stop offset="1" stop-color="white"/>
</linearGradient>
<radialGradient id="paint1_radial_151_34585" cx="0" cy="0" r="1" gradientUnits="userSpaceOnUse" gradientTransform="translate(22.0925 32.4921) scale(27.8184 27.5367)">
<stop stop-color="#FFFF00"/>
<stop offset="1"/>
</radialGradient>
<clipPath id="clip0_151_34585">
<rect width="27" height="37" fill="white" transform="translate(0.499023 0.110352)"/>
</clipPath>
</defs>
</svg>
