<svg width="19" height="19" viewBox="0 0 19 19" fill="none" xmlns="http://www.w3.org/2000/svg">
<g clip-path="url(#clip0_151_34547)">
<path fill-rule="evenodd" clip-rule="evenodd" d="M0.357422 9.74622C0.357422 13.8245 3.02895 17.2871 6.70713 18.5183C7.17175 18.5952 7.32662 18.3259 7.32662 18.0566C7.32662 17.8258 7.32662 17.2487 7.32662 16.4792C4.73253 17.0563 4.19048 15.248 4.19048 15.248C3.76458 14.1707 3.1451 13.9014 3.1451 13.9014C2.29331 13.3243 3.22254 13.3243 3.22254 13.3243C4.15176 13.4012 4.65509 14.2862 4.65509 14.2862C5.46817 15.7097 6.82329 15.2865 7.36534 15.0556C7.44277 14.44 7.67508 14.0553 7.9461 13.8245C5.89406 13.5936 3.72587 12.7857 3.72587 9.24605C3.72587 8.24573 4.07433 7.3993 4.69381 6.78372C4.61638 6.55287 4.26792 5.6295 4.77125 4.32138C4.77125 4.32138 5.5456 4.09054 7.32662 5.28323C8.06226 5.09086 8.87533 4.97544 9.64968 4.97544C10.424 4.97544 11.2371 5.09086 11.9727 5.28323C13.7538 4.09054 14.5281 4.32138 14.5281 4.32138C15.0315 5.59102 14.7217 6.5144 14.6056 6.78372C15.1863 7.43778 15.5735 8.24573 15.5735 9.24605C15.5735 12.7857 13.4053 13.5551 11.3145 13.786C11.663 14.0553 11.934 14.6324 11.934 15.4788C11.934 16.71 11.934 17.7103 11.934 18.0181C11.934 18.249 12.0889 18.5568 12.5922 18.4798C16.2704 17.2871 18.9419 13.8245 18.9419 9.74622C18.9419 4.62917 14.7991 0.512451 9.64968 0.512451C4.50022 0.512451 0.357422 4.62917 0.357422 9.74622Z" fill="#872191"/>
</g>
<defs>
<clipPath id="clip0_151_34547">
<rect width="18.5845" height="18.0192" fill="white" transform="translate(0.357422 0.512451)"/>
</clipPath>
</defs>
</svg>
