<svg width="25" height="24" viewBox="0 0 25 24" fill="none" xmlns="http://www.w3.org/2000/svg">
<path d="M6.64262 6.70609C5.3967 8.11664 4.64062 9.97002 4.64062 12C4.64062 16.4183 8.22235 20 12.6406 20C13.8019 20 14.9053 19.7526 15.9011 19.3076C15.8727 19.1077 15.8535 18.8826 15.8335 18.648C15.7623 17.8137 15.6809 16.8602 15.1406 16.5C13.6406 15.5 13.6406 14.5 13.6406 14C13.6406 12.8 15.1406 12 16.1406 12.5C16.1406 13 16.7406 14 17.1406 14C17.4942 14 17.5977 14.25 17.8048 14.75C17.8906 14.9571 17.9942 15.2071 18.1406 15.5C18.3933 16.0053 18.7922 16.4042 19.1358 16.6715C20.0828 15.3571 20.6406 13.7437 20.6406 12C20.6406 8.29635 18.1238 5.18052 14.7072 4.26949C14.7959 4.8447 14.4757 5.16489 14.2031 5.4375C13.8906 5.75 13.6406 6 14.1406 6.5C14.5593 6.91868 14.2343 7.79127 13.9393 8.58337C13.8153 8.91637 13.6966 9.23516 13.6406 9.5C13.5118 10.1098 12.8769 11.2638 12.6406 11.5C12.5087 11.6319 12.2725 11.7986 11.987 12C11.1899 12.5623 10.0087 13.3956 9.64062 14.5C8.079 13.7192 8.13623 11.8137 8.16242 10.942C8.16976 10.6973 8.17467 10.534 8.14062 10.5C7.53507 9.89445 7.47956 9.47225 7.41896 9.01134C7.37948 8.7111 7.33785 8.39445 7.14062 8C6.79931 7.31737 6.69099 7.10072 6.65661 6.87292C6.64861 6.81992 6.64461 6.76631 6.64262 6.70609Z" fill="#7C7B7B"/>
<path fill-rule="evenodd" clip-rule="evenodd" d="M6.64262 6.70609C5.3967 8.11664 4.64062 9.97002 4.64062 12C4.64062 16.4183 8.22235 20 12.6406 20C13.8019 20 14.9053 19.7526 15.9011 19.3076C15.9011 19.3076 17.1465 18.7589 17.8048 18.2077C18.4135 17.6982 19.1358 16.6715 19.1358 16.6715C20.0828 15.3571 20.6406 13.7437 20.6406 12C20.6406 8.29635 18.1238 5.18052 14.7072 4.26949C14.7072 4.26949 11.8358 3.93883 10.1406 4.5C8.60741 5.00756 6.64262 6.70609 6.64262 6.70609ZM12.6406 2C7.11778 2 2.64062 6.47715 2.64062 12C2.64062 17.5228 7.11778 22 12.6406 22C18.1635 22 22.6406 17.5228 22.6406 12C22.6406 6.47715 18.1635 2 12.6406 2Z" fill="#7C7B7B"/>
</svg>
