<svg width="24" height="20" viewBox="0 0 24 20" fill="none" xmlns="http://www.w3.org/2000/svg">
<path d="M9.30375 9.50198H11.4738C12.0647 9.50198 12.6499 9.61838 13.1958 9.84452C13.7418 10.0707 14.2379 10.4021 14.6557 10.82C15.0736 11.2379 15.4051 11.7339 15.6312 12.2799C15.8574 12.8259 15.9738 13.411 15.9738 14.002H8.97275V15.002H16.9728V14.002C16.9699 12.938 16.6628 11.8971 16.0878 11.002H18.9738C19.9191 11.0018 20.8452 11.2697 21.6445 11.7744C22.4438 12.2792 23.0836 13.0003 23.4898 13.854C21.1248 16.974 17.2958 19.003 12.9738 19.003C10.2128 19.003 7.87375 18.412 5.97375 17.378V8.07398C7.19028 8.24792 8.33915 8.74058 9.30375 9.50198ZM3.97375 7.00198C4.21884 7.00204 4.45537 7.0921 4.63843 7.25507C4.82149 7.41803 4.93832 7.64255 4.96675 7.88598L4.97375 8.00198V17.002C4.97375 17.2672 4.8684 17.5215 4.68086 17.7091C4.49332 17.8966 4.23897 18.002 3.97375 18.002H1.97376C1.70854 18.002 1.45418 17.8966 1.26665 17.7091C1.07911 17.5215 0.973755 17.2672 0.973755 17.002V8.00198C0.973755 7.73676 1.07911 7.48241 1.26665 7.29487C1.45418 7.10734 1.70854 7.00198 1.97376 7.00198H3.97375ZM13.6198 1.57798L13.9738 1.93198L14.3268 1.57798C14.7962 1.11246 15.431 0.85187 16.0921 0.853223C16.7533 0.854577 17.387 1.11777 17.8545 1.5852C18.3221 2.05264 18.5855 2.68625 18.587 3.34739C18.5886 4.00854 18.3281 4.64337 17.8628 5.11298L13.9728 9.00298L10.0848 5.11298C9.84598 4.88236 9.65552 4.6065 9.5245 4.30149C9.39348 3.99648 9.32451 3.66843 9.32163 3.33648C9.31874 3.00453 9.382 2.67533 9.5077 2.36809C9.6334 2.06085 9.81904 1.78172 10.0538 1.54699C10.2885 1.31226 10.5676 1.12663 10.8749 1.00092C11.1821 0.875222 11.5113 0.811968 11.8433 0.814853C12.1752 0.817737 12.5033 0.886703 12.8083 1.01773C13.1133 1.14875 13.3891 1.3392 13.6198 1.57798Z" fill="#7C7B7B"/>
</svg>
