<svg width="20" height="20" viewBox="0 0 20 20" fill="none" xmlns="http://www.w3.org/2000/svg">
<g clip-path="url(#clip0_151_34538)">
<path fill-rule="evenodd" clip-rule="evenodd" d="M14.1779 2.30793C14.7939 2.31543 15.4041 2.42784 15.982 2.64028C16.401 2.80086 16.7815 3.04685 17.0991 3.36242C17.4167 3.67799 17.6642 4.05614 17.8258 4.47253C18.0396 5.04672 18.1527 5.65308 18.1603 6.26526C18.2065 7.28344 18.2167 7.58866 18.2167 10.166C18.2167 12.7434 18.207 13.0487 18.1603 14.0668C18.1527 14.679 18.0396 15.2854 17.8258 15.8596C17.6642 16.2759 17.4167 16.6541 17.0991 16.9697C16.7815 17.2852 16.401 17.5312 15.982 17.6918C15.4041 17.9043 14.7939 18.0167 14.1779 18.0242C13.1537 18.0701 12.8466 18.0802 10.2524 18.0802C7.6582 18.0802 7.35104 18.0706 6.32688 18.0242C5.71082 18.0167 5.10062 17.9043 4.5228 17.6918C4.10377 17.5312 3.72322 17.2852 3.40565 16.9697C3.08808 16.6541 2.84053 16.2759 2.67893 15.8596C2.46514 15.2854 2.35202 14.679 2.34448 14.0668C2.29822 13.0487 2.28805 12.7434 2.28805 10.166C2.28805 7.58866 2.29776 7.28344 2.34448 6.26526C2.35202 5.65308 2.46514 5.04672 2.67893 4.47253C2.84053 4.05614 3.08808 3.67799 3.40565 3.36242C3.72322 3.04685 4.10377 2.80086 4.5228 2.64028C5.10062 2.42784 5.71082 2.31543 6.32688 2.30793C7.3515 2.26197 7.65866 2.25185 10.2524 2.25185C12.8461 2.25185 13.1532 2.26151 14.1779 2.30793ZM6.24731 0.57037C5.44105 0.586306 4.64334 0.738004 3.88813 1.01901C3.24028 1.26156 2.65349 1.64167 2.1687 2.1328C1.67401 2.61471 1.29117 3.19814 1.04693 3.84232C0.764142 4.59278 0.611483 5.38547 0.595447 6.18666C0.549188 7.2154 0.538086 7.54545 0.538086 10.1656C0.538086 12.7857 0.549188 13.1158 0.596372 14.1454C0.612409 14.9466 0.765068 15.7393 1.04786 16.4898C1.29183 17.1339 1.67434 17.7173 2.1687 18.1993C2.65375 18.6905 3.24087 19.0706 3.88905 19.3131C4.64427 19.5941 5.44197 19.7458 6.24824 19.7617C7.28443 19.8077 7.61518 19.8196 10.2533 19.8196C12.8914 19.8196 13.2222 19.8086 14.2584 19.7617C15.0646 19.7458 15.8623 19.5941 16.6175 19.3131C17.2627 19.0646 17.8485 18.6851 18.3376 18.1988C18.8266 17.7124 19.2082 17.1301 19.4578 16.4888C19.7406 15.7384 19.8933 14.9457 19.9093 14.1445C19.9556 13.1158 19.9667 12.7857 19.9667 10.1656C19.9667 7.54545 19.9556 7.2154 19.9084 6.18574C19.8923 5.38455 19.7397 4.59186 19.4569 3.8414C19.2129 3.1973 18.8304 2.61388 18.3361 2.13188C17.851 1.64064 17.2639 1.26053 16.6157 1.01809C15.8605 0.737084 15.0628 0.585387 14.2565 0.569451C13.2212 0.523483 12.8891 0.512451 10.2524 0.512451C7.61564 0.512451 7.2835 0.523483 6.24731 0.57037Z" fill="#872191"/>
<path fill-rule="evenodd" clip-rule="evenodd" d="M7.47877 6.04417C6.65841 6.58886 6.01902 7.36306 5.64145 8.26885C5.26388 9.17464 5.16509 10.1714 5.35757 11.1329C5.55006 12.0945 6.02517 12.9778 6.72282 13.6711C7.42048 14.3643 8.30935 14.8364 9.27703 15.0277C10.2447 15.219 11.2477 15.1208 12.1593 14.7456C13.0708 14.3704 13.8499 13.7351 14.398 12.9199C14.9462 12.1047 15.2388 11.1463 15.2388 10.1659C15.2388 8.85115 14.7132 7.59029 13.7777 6.66065C12.8421 5.73101 11.5733 5.20874 10.2502 5.20874C9.2636 5.20874 8.29912 5.49947 7.47877 6.04417ZM8.45125 12.8413C7.91875 12.4877 7.50371 11.9852 7.25863 11.3972C7.01354 10.8093 6.94942 10.1623 7.07436 9.53811C7.19931 8.91394 7.5077 8.34059 7.96056 7.89059C8.41342 7.44058 8.99039 7.13413 9.61852 7.00997C10.2466 6.88581 10.8977 6.94954 11.4894 7.19308C12.0811 7.43662 12.5868 7.84904 12.9426 8.37819C13.2984 8.90734 13.4883 9.52945 13.4883 10.1659C13.4883 11.0192 13.1472 11.8377 12.5399 12.4411C11.9327 13.0446 11.109 13.3836 10.2502 13.3836C9.60981 13.3836 8.98375 13.1949 8.45125 12.8413Z" fill="#872191"/>
<path fill-rule="evenodd" clip-rule="evenodd" d="M15.4372 6.171C14.7934 6.171 14.2715 5.65238 14.2715 5.01262C14.2715 4.37287 14.7934 3.85425 15.4372 3.85425C16.081 3.85425 16.6029 4.37287 16.6029 5.01262C16.6029 5.65238 16.081 6.171 15.4372 6.171Z" fill="#872191"/>
</g>
<defs>
<clipPath id="clip0_151_34538">
<rect width="19.4286" height="19.3072" fill="white" transform="translate(0.538086 0.512451)"/>
</clipPath>
</defs>
</svg>
