<svg width="28" height="38" viewBox="0 0 28 38" fill="none" xmlns="http://www.w3.org/2000/svg">
<g clip-path="url(#clip0_142_28508)">
<path d="M20.6371 0.760274C17.2183 -0.147381 13.5924 0.088794 10.3232 1.43206C7.05412 2.77533 4.3251 5.15039 2.56068 8.18778C0.796263 11.2252 0.0953663 14.7546 0.567017 18.2271C1.03867 21.6996 2.65642 24.9205 5.16864 27.3887L23.055 9.68655C23.7238 9.02409 24.2046 8.19907 24.4493 7.29438C24.6939 6.38969 24.6937 5.4372 24.4487 4.53261C24.2037 3.62803 23.7224 2.80321 23.0534 2.14103C22.3843 1.47886 21.551 1.00266 20.6371 0.760274Z" fill="#E7DEF2"/>
<path d="M7.21478 36.6808C10.6356 37.5914 14.2646 37.3566 17.5367 36.0132C20.8088 34.6697 23.5402 32.293 25.3057 29.253C27.0711 26.213 27.7715 22.6804 27.2978 19.2054C26.824 15.7304 25.2027 12.508 22.6863 10.04L4.79997 27.7545C4.13116 28.4167 3.65019 29.2415 3.40536 30.146C3.16052 31.0505 3.16045 32.0029 3.40516 32.9074C3.64986 33.812 4.13071 34.6368 4.79942 35.2992C5.46813 35.9615 6.30114 36.438 7.21478 36.6808Z" fill="#F2EFF5"/>
<path style="mix-blend-mode:multiply" d="M22.6863 10.04L4.79997 27.7545C4.13116 28.4167 3.65019 29.2415 3.40536 30.146C3.16052 31.0505 3.16045 32.0029 3.40516 32.9074C3.64986 33.812 4.13071 34.6368 4.79942 35.2992C5.46813 35.9615 6.30114 36.438 7.21478 36.6808C9.12745 37.1857 11.1177 37.3376 13.086 37.1288C5.24325 29.66 22.6863 10.04 22.6863 10.04Z" fill="white"/>
<g style="mix-blend-mode:multiply">
<path style="mix-blend-mode:multiply" d="M6.88657 36.5827C4.34777 28.801 19.5961 13.1301 22.2868 10.4482L4.80035 27.7546C4.15204 28.3965 3.67985 29.1914 3.42842 30.0643C3.177 30.9372 3.15466 31.8591 3.36352 32.7429C3.57237 33.6267 4.00552 34.4431 4.622 35.115C5.23848 35.7869 6.0179 36.2921 6.88657 36.5827Z" fill="white"/>
<path style="mix-blend-mode:multiply" d="M22.6281 10.1108C22.6467 10.0904 22.6663 10.0709 22.687 10.0525L22.6281 10.1108Z" fill="url(#paint0_linear_142_28508)"/>
</g>
<path style="mix-blend-mode:screen" d="M24.3668 7.58545L5.14751 27.3773L23.0555 9.68737C23.6537 9.0987 24.103 8.37851 24.3668 7.58545Z" fill="url(#paint1_radial_142_28508)"/>
</g>
<defs>
<linearGradient id="paint0_linear_142_28508" x1="26.0999" y1="3.48903" x2="11.0218" y2="32.9335" gradientUnits="userSpaceOnUse">
<stop stop-color="#F3FBFB"/>
<stop offset="0.36" stop-color="#97C4C5"/>
<stop offset="0.8" stop-color="#E2EEEF"/>
<stop offset="1" stop-color="white"/>
</linearGradient>
<radialGradient id="paint1_radial_142_28508" cx="0" cy="0" r="1" gradientUnits="userSpaceOnUse" gradientTransform="translate(22.0202 32.6029) scale(27.8184 27.5367)">
<stop stop-color="#FFFF00"/>
<stop offset="1"/>
</radialGradient>
<clipPath id="clip0_142_28508">
<rect width="27" height="37" fill="white" transform="translate(0.426758 0.221191)"/>
</clipPath>
</defs>
</svg>
