<svg width="138" height="26" viewBox="0 0 138 26" fill="none" xmlns="http://www.w3.org/2000/svg">
<path d="M3.62312 20.3679C2.59441 20.3701 1.64408 19.8186 1.1356 18.9244C0.634443 18.0356 0.664495 16.9429 1.21374 16.083L6.33638 8.03876C6.87016 7.15858 7.83623 6.63367 8.86514 6.66476C9.89331 6.6894 10.8285 7.26587 11.3125 8.17334C11.79 9.07631 11.7303 10.1627 11.1584 11.0103L6.03901 19.0546C5.51138 19.8768 4.60004 20.3722 3.62312 20.3679Z" fill="#F62B54"/>
<path d="M12.4099 20.3675C11.3767 20.3675 10.426 19.8151 9.92676 18.9273C9.42671 18.0409 9.45677 16.951 10.0049 16.0935L15.1178 8.06771C15.6438 7.1749 16.6128 6.63766 17.6487 6.66441C18.6906 6.6872 19.6348 7.27001 20.1123 8.18166C20.5866 9.09332 20.5172 10.1862 19.9278 11.0317L14.8161 19.0575C14.2901 19.8761 13.383 20.37 12.4099 20.3675Z" fill="#FFCC00"/>
<path d="M21 20.4357C22.4566 20.4357 23.6373 19.2798 23.6373 17.8538C23.6373 16.4278 22.4566 15.2719 21 15.2719C19.5435 15.2719 18.3627 16.4278 18.3627 17.8538C18.3627 19.2798 19.5435 20.4357 21 20.4357Z" fill="#00CA72"/>
<path d="M135.571 15.4204C136.368 15.4204 136.844 15.9869 136.844 16.9149V20.0948H137.926V16.8422C137.926 15.2641 137.183 14.3492 135.785 14.3492C135.238 14.3492 134.37 14.499 133.852 15.5051C133.607 14.9005 133.049 14.4794 132.401 14.4089C132.2 14.3722 131.996 14.3602 131.793 14.3731C131.348 14.4089 130.556 14.6857 130.259 15.313V14.4697H129.176V20.0948H130.259V17.0592C130.259 15.8784 131.032 15.4204 131.806 15.4204C132.531 15.4204 133.007 15.975 133.007 16.9029V20.0948H134.084V17.0592C134.084 16.1193 134.648 15.4096 135.571 15.4204ZM125.201 19.1549C125.696 19.1658 126.173 18.9683 126.52 18.6101C126.867 18.252 127.051 17.7647 127.033 17.2643C127.033 16.1313 126.199 15.4204 125.201 15.4204C124.201 15.4204 123.369 16.1313 123.369 17.2643C123.349 17.7636 123.534 18.2498 123.879 18.6069C124.224 18.965 124.699 19.1636 125.192 19.1549H125.201ZM125.201 20.2099C123.619 20.2099 122.298 19.041 122.298 17.2578C122.298 15.4747 123.619 14.3427 125.201 14.3427C126.783 14.3427 128.115 15.4747 128.115 17.2578C128.115 19.041 126.776 20.2153 125.193 20.2153L125.201 20.2099ZM116.725 17.2578L116.714 17.2643C116.714 15.4812 118.069 14.3492 119.663 14.3427C120.472 14.327 121.25 14.6552 121.804 15.2457L120.983 15.9446C120.631 15.599 120.156 15.4083 119.663 15.415C118.664 15.415 117.796 16.1259 117.796 17.2578C117.796 18.023 118.251 18.7121 118.948 19.0052C119.646 19.2982 120.449 19.1354 120.983 18.5949L121.816 19.2939C121.26 19.8905 120.478 20.2234 119.663 20.2099C118.081 20.2099 116.725 19.041 116.725 17.2578ZM113.259 19.0149C113.257 18.8163 113.334 18.6249 113.472 18.4829C113.611 18.3408 113.801 18.2597 113.999 18.2574C114.198 18.2597 114.388 18.3408 114.526 18.4829C114.665 18.6249 114.742 18.8163 114.74 19.0149C114.72 19.4103 114.395 19.7217 113.999 19.7258C113.604 19.7217 113.279 19.4103 113.259 19.0149Z" fill="#333333"/>
<path d="M116.22 7.3192H112.366L109.665 14.2836L106.978 7.3192H103.124L107.809 18.3242L104.895 25.6001H108.721L116.22 7.3192ZM92.782 13.4403C92.782 15.1985 94.3188 16.3555 95.8285 16.3555C97.3121 16.3555 98.7696 15.2788 98.7696 13.4392C98.7696 11.5996 97.3121 10.5219 95.8285 10.5219C94.3188 10.5219 92.782 11.68 92.782 13.4392V13.4403ZM98.7696 19.5853V18.1929C97.9882 19.3759 96.1649 19.823 95.2294 19.823C92.1319 19.823 89.0334 17.3811 89.0334 13.4392C89.0334 9.4985 92.1308 7.05656 95.2294 7.05656C96.0097 7.05656 97.833 7.31703 98.7696 8.68452V7.32354H102.362V19.5875L98.7696 19.5864V19.5853ZM88.011 19.5853H84.4186V18.0616C83.8185 19.1903 82.3631 19.848 80.8523 19.848C77.7277 19.848 74.9678 17.3529 74.9678 13.4892C74.9678 9.55276 77.7277 7.05439 80.8523 7.05439C82.3609 7.05439 83.8206 7.68387 84.4186 8.81367V0.638062H88.011V19.5853ZM84.3405 13.4121C84.3405 11.5736 83.0132 10.4959 81.5296 10.4959C79.9928 10.4959 78.7164 11.6517 78.7164 13.4121C78.7164 15.2289 79.9928 16.3793 81.5285 16.3793C83.0403 16.3815 84.3405 15.1725 84.3405 13.4121ZM66.0857 13.0952C66.0857 11.2306 67.0494 10.6001 68.3246 10.6001C69.5478 10.6001 70.4334 11.4141 70.4334 13.042V19.5832H74.0518V12.2552C74.0518 8.76266 72.3327 7.05439 69.5988 7.05439C68.1673 7.05439 66.7358 7.86837 66.0846 9.10344V7.3192H62.4683V19.5832H66.0857V13.0952ZM55.1208 19.7937C51.6847 19.7937 48.8185 17.2725 48.8185 13.411C48.8185 9.54733 51.6815 7.05113 55.1208 7.05113C58.5602 7.05113 61.4482 9.54733 61.4482 13.411C61.4482 17.2747 58.5569 19.7948 55.1208 19.7948V19.7937ZM55.1208 16.223C56.6294 16.223 57.8808 15.1182 57.8808 13.4121C57.8808 11.757 56.6305 10.6272 55.1208 10.6272C54.3862 10.6157 53.6791 10.9065 53.1651 11.4314C52.6482 11.959 52.3674 12.6737 52.3869 13.4121C52.388 15.1204 53.6372 16.223 55.1208 16.223ZM42.3316 10.6012C43.3984 10.6012 44.3361 11.4423 44.3361 13.0431V19.5853H47.9285V12.6198C47.9285 8.91677 46.128 7.05222 43.2422 7.05222C42.3848 7.05222 40.7698 7.31269 39.5977 9.23151C38.9205 7.81302 37.6192 7.07718 35.696 7.07718C34.3323 7.07024 33.0905 7.86133 32.5204 9.10019V7.32029H28.8998V19.5842H32.5172V13.0952C32.5172 11.2306 33.533 10.6001 34.6259 10.6001C35.6678 10.6001 36.6033 11.4141 36.6305 12.9639V19.5842H40.2489V13.0952C40.2489 11.312 41.1866 10.6023 42.3316 10.6023V10.6012Z" fill="#333333"/>
</svg>
