<svg width="138" height="30" viewBox="0 0 138 30" fill="none" xmlns="http://www.w3.org/2000/svg">
<path d="M136.349 10.8036C137.424 11.6735 136.286 13.0495 135.337 12.3537C134.166 11.6103 131.509 11.2624 131.177 12.9071C130.75 15.5011 137.63 14.0144 137.519 18.2214C137.409 22.2389 131.588 22.3337 129.406 20.5306C128.884 20.1037 128.899 19.4077 129.184 18.9806C129.595 18.5695 130.054 18.4271 130.592 18.8699C131.889 19.7556 135.226 20.42 135.463 18.1741C135.258 15.8332 128.678 17.2408 129.168 12.7491C129.532 9.68067 134.166 9.12704 136.349 10.8036ZM125.973 11.4204V17.146C125.973 23.0613 116.436 23.0613 116.436 17.146V11.4204C116.436 9.99705 118.508 9.93373 118.508 11.4204V17.146C118.508 20.2617 123.901 20.4516 123.901 17.146V11.4204C123.901 10.0128 125.973 9.90206 125.973 11.4204ZM60.6652 9.98123C63.433 10.1235 66.3274 12.0373 66.3274 15.7858C66.3274 19.5342 63.433 21.4797 60.6652 21.4797C57.7392 21.6062 54.7024 19.6608 54.7024 15.7858C54.7024 11.8949 57.7392 9.98123 60.6652 9.98123ZM74.5997 10.3765C78.6171 10.3765 79.4395 15.7541 76.0865 17.0985L78.19 19.6608C79.0125 20.8787 77.3676 22.049 76.4186 20.847L74.0304 17.4307H71.5472V20.2934C71.5472 21.6694 69.4436 21.7169 69.4436 20.3251V11.3414C69.4436 10.7878 69.8707 10.3765 70.3926 10.3765H74.5997ZM41.8274 10.2343C42.2861 10.2343 42.555 10.5032 42.8239 10.8036L46.3034 15.5011L49.9096 10.6296C50.4315 9.98123 51.7126 10.2343 51.7126 11.3256V20.2302C51.7126 20.9261 51.2697 21.3215 50.7636 21.3215C50.1942 21.3215 49.7514 20.9261 49.7514 20.2302V14.3781L47.1259 17.6996C46.5564 18.3954 45.8448 18.3954 45.3228 17.6996L42.9662 14.3781V20.2302C42.9662 20.9261 42.3968 21.3215 41.8274 21.3215C41.3213 21.3215 40.8784 20.9261 40.8784 20.2302V11.3256C40.8784 10.5032 41.5743 10.2343 41.8274 10.2343ZM86.067 10.2343C88.1231 10.2343 89.9736 11.6103 89.9736 14.2516C89.9736 16.7505 88.1231 18.1424 86.067 18.1424H83.4256V20.2302C83.4256 20.9261 82.9828 21.3215 82.4134 21.3215C81.8915 21.3215 81.3379 20.9261 81.3379 20.2302V11.3256C81.3379 10.8036 81.7491 10.2343 82.4134 10.2343H86.067ZM101.172 10.3765C101.726 10.3765 102.153 10.7878 102.153 11.3572V20.3409C102.153 20.8944 101.726 21.3215 101.172 21.3215C100.603 21.3215 100.097 20.8944 100.097 20.3409V16.8771H94.9405V20.3409C94.9405 20.8944 94.5292 21.3215 93.9756 21.3215C93.2639 21.3215 92.8527 20.8944 92.8527 20.3409V11.3572C92.8527 10.7878 93.2639 10.3765 93.9756 10.3765C94.5292 10.3765 94.9405 10.7878 94.9405 11.3572V14.8052H100.097V11.3572C100.097 10.7878 100.603 10.3765 101.172 10.3765ZM112.181 10.3765C113.636 10.3765 113.604 12.4327 112.181 12.4327H107.626V14.8052H111.611C113.019 14.8052 113.019 16.8771 111.611 16.8771H107.626V19.2495H112.45C113.889 19.2495 114 21.3215 112.45 21.3215H106.503C105.949 21.3215 105.522 20.8944 105.522 20.3409V11.3572C105.522 10.7878 105.949 10.3765 106.503 10.3765H112.181ZM60.4912 12.0373C58.7198 12.0373 56.7902 13.2869 56.7902 15.7858C56.7902 18.2689 58.7198 19.5342 60.4912 19.5342C62.3101 19.5342 64.2555 18.2689 64.2555 15.7858C64.2555 13.2869 62.3101 12.0373 60.4912 12.0373ZM86.067 12.2271H83.4256V16.1654H86.067C87.1266 16.1654 87.965 15.2322 87.965 14.2516C87.965 13.1445 87.1266 12.2271 86.067 12.2271ZM74.5998 12.2903H71.5472V15.6118H74.5998C76.6558 15.6118 76.7824 12.2903 74.5998 12.2903Z" fill="#3DB5E6"/>
<path d="M28.332 18.6798C26.79 24.8749 21.1482 29.2824 14.5033 29.2824C7.82841 29.2824 2.23513 24.614 0.756332 18.3934C2.53451 18.3934 4.19684 18.4015 4.96859 18.4015C5.33265 18.4015 5.40335 18.4078 5.42441 18.4063C6.0051 18.3777 6.73322 18.1861 7.21763 17.0082L9.0635 12.1796L13.1629 22.0497C13.5315 22.8365 14.1468 22.7808 14.5139 22.7808H14.5485C15.2646 22.7808 15.576 22.5298 15.8483 22.0108L20.4787 12.2536L22.0583 16.6509L22.1546 16.8639C22.4886 17.5965 22.7288 18.3201 23.5553 18.4147C23.7257 18.4342 25.7042 18.3996 28.3715 18.3996C28.3715 18.3996 28.3715 18.4167 28.332 18.6798Z" fill="#3DB5E6"/>
<path d="M28.7847 15.0311C28.7847 15.1048 28.7847 15.2902 28.7832 15.2902H28.7802H24.5229L22.0391 8.35189C21.818 7.83589 21.4855 7.06233 20.5167 7.06233C19.924 7.06233 19.3884 7.55185 19.0845 8.3597L14.5819 18.7891L10.2478 8.42297C9.82357 7.50229 9.53022 7.06929 8.68175 7.06929C8.10557 7.06929 7.68284 7.28154 7.2225 8.37221L4.65002 15.3932L0.376075 15.3887C0.373064 15.2819 0.371567 15.1751 0.371567 15.0683C0.371567 7.2636 6.69898 0.955933 14.5037 0.955933C22.3084 0.955933 28.7847 7.22636 28.7847 15.0311Z" fill="#D8292F"/>
</svg>
