<svg width="138" height="19" viewBox="0 0 138 19" fill="none" xmlns="http://www.w3.org/2000/svg">
<path d="M59.8758 11.804H68.9383L64.1464 4.09455L55.3516 18.0336H51.3489L62.0463 1.28983C62.5114 0.613309 63.2866 0.20459 64.1464 0.20459C64.9779 0.20459 65.7531 0.599222 66.2041 1.26164L76.9438 18.0336H72.9411L71.0525 14.9188H61.8772L59.8758 11.804ZM101.453 14.9188V0.373719H98.0567V16.3423C98.0567 16.7792 98.2259 17.2021 98.55 17.5262C98.8741 17.8504 99.3111 18.0336 99.7903 18.0336H115.28L117.281 14.9188H101.453ZM45.2603 12.3114C48.5583 12.3114 51.2362 9.64763 51.2362 6.34961C51.2362 3.0516 48.5583 0.373719 45.2603 0.373719H30.4008V18.0336H33.7962V3.48851H45.0348C46.6134 3.48851 47.8818 4.77107 47.8818 6.34961C47.8818 7.92814 46.6134 9.21071 45.0348 9.21071L35.4593 9.19661L45.5985 18.0336H50.5315L43.71 12.3114H45.2603ZM9.4994 18.0336C4.6242 18.0336 0.667969 14.0873 0.667969 9.21071C0.667969 4.33415 4.6242 0.373719 9.4994 0.373719H19.764C24.6406 0.373719 28.594 4.33415 28.594 9.21071C28.594 14.0873 24.6406 18.0336 19.764 18.0336H9.4994ZM19.5357 14.9188C22.6943 14.9188 25.2523 12.3678 25.2523 9.21071C25.2523 6.05363 22.6943 3.48851 19.5357 3.48851H9.72627C6.56919 3.48851 4.00965 6.05363 4.00965 9.21071C4.00965 12.3678 6.56919 14.9188 9.72627 14.9188H19.5357ZM84.0331 18.0336C79.1565 18.0336 75.1961 14.0873 75.1961 9.21071C75.1961 4.33415 79.1565 0.373719 84.0331 0.373719H96.2245L94.2372 3.48851H84.2586C81.1015 3.48851 78.5364 6.05363 78.5364 9.21071C78.5364 12.3678 81.1015 14.9188 84.2586 14.9188H96.5063L94.505 18.0336H84.0331ZM125.568 14.9188C122.961 14.9188 120.748 13.1711 120.072 10.7611H134.589L136.59 7.64626H120.072C120.748 5.25027 122.961 3.48851 125.568 3.48851H135.533L137.548 0.373719H125.343C120.466 0.373719 116.506 4.33415 116.506 9.21071C116.506 14.0873 120.466 18.0336 125.343 18.0336H135.815L137.816 14.9188H125.568Z" fill="#EA1B22"/>
</svg>
