<svg width="24" height="24" viewBox="0 0 24 24" fill="none" xmlns="http://www.w3.org/2000/svg">
<path fill-rule="evenodd" clip-rule="evenodd" d="M3.9389 2C2.94623 2 2.04769 2.77711 2.00998 3.87188C1.93695 5.99237 2.25532 8.63171 3.27359 11.2423C4.74391 15.012 7.67623 18.7175 12.9369 20.6615C14.8477 21.3676 17.0511 21.8355 19.5826 21.9961C20.7217 22.0684 21.6346 21.1311 21.6346 20.011V17.294C21.6346 16.3937 21.0465 15.6038 20.1968 15.3627L17.5628 14.6156C16.8078 14.4014 16.0004 14.666 15.5086 15.2888L12.9558 18.5214C9.02246 16.8795 6.69695 14.1135 5.39637 11.2138L8.76295 8.7242C9.41618 8.24114 9.71356 7.39937 9.51274 6.60185L8.73304 3.50541C8.50993 2.61939 7.72752 2 6.83141 2H3.9389ZM19.6711 19.9934C17.9039 19.8791 16.3318 19.6059 14.9346 19.2093L17.0372 16.5469L19.6711 17.294V19.9934ZM7.61111 7.1009L4.67514 9.27206C4.10997 7.3867 3.92396 5.53816 3.97022 4.00445H6.83141L7.61111 7.1009ZM14.4911 2.89497C14.5506 2.3448 15.0357 1.94806 15.5746 2.00882L15.4669 3.00499C15.5208 2.5067 15.5476 2.25765 15.5611 2.13317C15.5743 2.01024 15.5746 2.00882 15.5746 2.00882L15.5773 2.00913L15.5809 2.00954L15.5904 2.01069L15.619 2.01435C15.6422 2.01744 15.6736 2.02187 15.7125 2.02791C15.7902 2.03997 15.8983 2.05853 16.0306 2.08581C16.2947 2.14021 16.6599 2.23012 17.0777 2.37423C17.9033 2.65895 18.9899 3.17424 19.8944 4.09762C20.8064 5.02868 21.3227 6.20094 21.611 7.0875C21.7576 7.5387 21.8517 7.93598 21.9095 8.22296C21.9385 8.36688 21.9586 8.48424 21.9718 8.56816C21.9783 8.61016 21.9832 8.64388 21.9866 8.66848L21.9906 8.69847L21.9918 8.70816L21.9923 8.71164L21.9924 8.71304C21.9924 8.71304 21.9926 8.71421 21.0182 8.83629L21.9926 8.71421C22.0586 9.2636 21.6759 9.76363 21.1378 9.83106C20.6 9.89843 20.1105 9.50829 20.0439 8.95948L20.0423 8.94768C20.0406 8.93522 20.0376 8.91418 20.033 8.88539C20.024 8.82772 20.009 8.73934 19.9863 8.62668C19.9407 8.40049 19.8653 8.08123 19.7475 7.7189C19.5067 6.97841 19.114 6.13566 18.506 5.51498C17.8905 4.88661 17.1104 4.50124 16.4493 4.27325C16.1239 4.161 15.8407 4.09154 15.6422 4.05065C15.5434 4.03029 15.4666 4.01723 15.4174 4.00959C15.3928 4.00577 15.3752 4.00332 15.3652 4.00199L15.3562 4.00083C14.8188 3.93863 14.4316 3.44416 14.4911 2.89497ZM12.7455 5.55873C12.7857 5.00674 13.2566 4.59249 13.7973 4.63347L13.7246 5.63295C13.7973 4.63348 13.7973 4.63347 13.7973 4.63347L13.7998 4.63367L13.8029 4.63391L13.8109 4.63458L13.8341 4.63667C13.8525 4.63843 13.8771 4.64095 13.9072 4.64444C13.9672 4.65142 14.0497 4.66233 14.1501 4.67887C14.3499 4.71181 14.6255 4.76793 14.9386 4.86206C15.5489 5.04555 16.3822 5.39729 17.0508 6.07987C17.7378 6.78119 18.0554 7.67243 18.2081 8.31663C18.2867 8.64847 18.3277 8.94108 18.3493 9.15286C18.3601 9.25931 18.3662 9.34688 18.3696 9.41059C18.3713 9.4425 18.3724 9.46855 18.373 9.48813L18.3737 9.51263L18.3739 9.52113L18.374 9.52442L18.374 9.52583C18.374 9.52583 18.374 9.52706 17.432 9.54082L18.374 9.52707C18.3818 10.0805 17.9486 10.5356 17.4064 10.5435C16.8656 10.5514 16.4207 10.1114 16.4108 9.55991L16.4107 9.55553C16.4105 9.54942 16.41 9.53751 16.4091 9.52036C16.4073 9.48597 16.4036 9.43109 16.3963 9.36015C16.3818 9.21713 16.3535 9.01517 16.2996 8.7879C16.1873 8.31386 15.9871 7.82867 15.6624 7.49723C15.3194 7.14704 14.8367 6.92099 14.3839 6.78487C14.1655 6.7192 13.9727 6.68005 13.837 6.65769C13.7697 6.64658 13.7177 6.63982 13.6852 6.63605C13.669 6.63417 13.6577 6.63304 13.652 6.63249L13.6479 6.63212C13.1092 6.58907 12.7055 6.10937 12.7455 5.55873Z" fill="#7C7B7B"/>
<path d="M4.67514 9.27206L7.61111 7.1009L6.83141 4.00445H3.97022C3.92396 5.53816 4.10997 7.3867 4.67514 9.27206Z" fill="#7C7B7B"/>
<path d="M14.9346 19.2093C16.3318 19.6059 17.9039 19.8791 19.6711 19.9934V17.294L17.0372 16.5469L14.9346 19.2093Z" fill="#7C7B7B"/>
</svg>
