<svg width="138" height="33" viewBox="0 0 138 33" fill="none" xmlns="http://www.w3.org/2000/svg">
<path d="M0.484397 24.3772C0.319923 24.2822 0.185181 24.0493 0.185181 23.8603V8.3773C0.185181 8.1879 0.319923 7.95537 0.484397 7.86016L14.0652 0.121086C14.2298 0.0260444 14.4991 0.0260444 14.6638 0.121086L28.2437 7.86102C28.4083 7.95606 28.5429 8.18859 28.5429 8.37799V23.8609C28.5429 24.0498 28.4083 24.2825 28.2437 24.3779L14.6638 32.1172C14.4991 32.2122 14.2298 32.2122 14.0652 32.1172L0.484397 24.3772ZM41.2992 9.91824V16.1982H43.9846C45.9335 16.1982 46.7997 15.4042 46.7997 14.1049V12.0116C46.7997 10.7124 45.9335 9.91824 43.9846 9.91824H41.2992ZM41.2992 18.1952V23.8015C41.2992 24.1382 41.2126 24.2825 40.9094 24.2825H39.5883C39.3068 24.2825 39.1985 24.1382 39.1985 23.8015V8.40256C39.1985 8.06571 39.3068 7.92117 39.5883 7.92117H43.9846C47.7094 7.92117 48.9004 9.65357 48.9004 11.6266V14.49C48.9004 16.4629 47.7094 18.1952 43.9846 18.1952H41.2992ZM53.7876 9.91824V15.8132H56.4728C58.4219 15.8132 59.2883 15.0432 59.2883 13.7199V12.0116C59.2883 10.7124 58.4219 9.91824 56.4728 9.91824H53.7876ZM53.7876 17.8103V23.8015C53.7876 24.1382 53.7008 24.2825 53.3976 24.2825H52.0767C51.7952 24.2825 51.6869 24.1382 51.6869 23.8015V8.40256C51.6869 8.06571 51.7952 7.92117 52.0767 7.92117H56.4728C60.1978 7.92117 61.3888 9.65357 61.3888 11.6266V14.1289C61.3888 15.5967 60.7175 16.92 58.855 17.4976L61.4538 23.8015C61.5621 24.0902 61.3672 24.2825 61.064 24.2825H59.7645C59.4614 24.2825 59.418 24.0902 59.2883 23.8015L56.8409 17.8103H53.7876ZM72.7733 11.8191C72.7733 10.5198 71.8592 9.72575 69.8019 9.72575C67.7676 9.72575 66.8534 10.5198 66.8534 11.8191V20.3846C66.8534 21.6841 67.7676 22.4779 69.8019 22.4779C71.8592 22.4779 72.7733 21.6841 72.7733 20.3846V11.8191ZM64.6133 11.4341C64.6133 9.46108 65.8934 7.72885 69.8019 7.72885C73.7334 7.72885 75.0136 9.46108 75.0136 11.4341V20.7698C75.0136 22.7428 73.7334 24.4752 69.8019 24.4752C65.8934 24.4752 64.6133 22.7428 64.6133 20.7698V11.4341ZM87.0823 7.92117C87.3794 7.92117 87.5166 8.04165 87.5166 8.37833V9.46108C87.5166 9.79793 87.3794 9.91824 87.0823 9.91824H83.4252V23.8015C83.4252 24.1382 83.3109 24.2825 83.0135 24.2825H81.5965C81.2994 24.2825 81.1851 24.1382 81.1851 23.8015V9.91824H77.5278C77.2079 9.91824 77.0937 9.79793 77.0937 9.46108V8.37833C77.0937 8.04165 77.2079 7.92117 77.5278 7.92117H87.0823ZM97.7344 11.8191C97.7344 10.5198 96.8201 9.72575 94.7631 9.72575C92.7287 9.72575 91.8144 10.5198 91.8144 11.8191V20.3846C91.8144 21.6841 92.7287 22.4779 94.7631 22.4779C96.8201 22.4779 97.7344 21.6841 97.7344 20.3846V11.8191ZM89.5743 11.4341C89.5743 9.46108 90.8543 7.72885 94.7631 7.72885C98.6945 7.72885 99.9745 9.46108 99.9745 11.4341V20.7698C99.9745 22.7428 98.6945 24.4752 94.7631 24.4752C90.8543 24.4752 89.5743 22.7428 89.5743 20.7698V11.4341ZM113.205 23.8254C113.205 24.1382 113.119 24.2825 112.815 24.2825H111.624C111.408 24.2825 111.321 24.2103 111.235 24.066L106.145 14.1532C105.669 13.2627 105.409 12.5168 105.366 12.4206V23.8254C105.366 24.1382 105.257 24.2825 104.976 24.2825H103.763C103.482 24.2825 103.373 24.1382 103.373 23.8254V8.37833C103.373 8.06571 103.482 7.92117 103.763 7.92117H104.976C105.149 7.92117 105.257 7.99335 105.322 8.11366L110.541 18.2434C110.845 18.8208 111.213 19.7831 111.213 19.7831V8.37833C111.213 8.06571 111.343 7.92117 111.624 7.92117H112.815C113.119 7.92117 113.205 8.06571 113.205 8.37833V23.8254ZM116.929 24.2825C116.648 24.2825 116.54 24.1382 116.54 23.8015V8.40256C116.54 8.06571 116.648 7.92117 116.929 7.92117H124.336C124.617 7.92117 124.747 8.04165 124.747 8.37833V9.46108C124.747 9.79793 124.617 9.91824 124.336 9.91824H118.64V14.7786H123.946C124.249 14.7786 124.379 14.8989 124.379 15.2357V16.2704C124.379 16.5832 124.249 16.7275 123.946 16.7275H118.64V22.2856H124.574C124.855 22.2856 124.985 22.3819 124.985 22.7186V23.8254C124.985 24.1624 124.855 24.2825 124.574 24.2825H116.929ZM136.922 7.92117C137.203 7.92117 137.333 8.04165 137.333 8.37833V9.46108C137.333 9.79793 137.203 9.91824 136.922 9.91824H133.457V23.8015C133.457 24.1382 133.348 24.2825 133.067 24.2825H131.724C131.443 24.2825 131.335 24.1382 131.335 23.8015V9.91824H127.87C127.566 9.91824 127.458 9.79793 127.458 9.46108V8.37833C127.458 8.04165 127.566 7.92117 127.87 7.92117H136.922Z" fill="#E15B29"/>
</svg>
