<svg width="138" height="22" viewBox="0 0 138 22" fill="none" xmlns="http://www.w3.org/2000/svg">
<path d="M130.289 9.84216V12.7016H132.298V15.5387C132.304 15.756 132.294 15.9879 132.264 16.1875L132.247 16.2844C132.244 16.306 132.24 16.3282 132.235 16.351L132.219 16.4208C132.216 16.4326 132.213 16.4446 132.209 16.4567L132.186 16.5303C132.005 17.0527 131.461 17.7147 130.238 17.7147C128.936 17.7147 128.413 16.9547 128.27 16.4208L128.254 16.351L128.241 16.2844C128.205 16.0656 128.19 15.7922 128.19 15.5387V6.57786C128.19 6.29611 128.207 5.9907 128.257 5.74188L128.292 5.59068C128.294 5.58021 128.297 5.56957 128.3 5.55877L128.319 5.49218C128.322 5.4808 128.326 5.46928 128.33 5.45765L128.355 5.38646C128.541 4.89137 129.032 4.23197 130.228 4.23197C131.151 4.23197 131.647 4.60799 131.913 4.99663L131.96 5.06956C131.975 5.09386 131.989 5.11812 132.002 5.14225L132.039 5.21417L132.072 5.2848L132.1 5.35358L132.124 5.42001L132.145 5.48353L132.162 5.54362L132.176 5.59975L132.188 5.65139C132.193 5.67707 132.197 5.70433 132.202 5.73267L132.213 5.82044C132.215 5.83544 132.217 5.85059 132.218 5.86582L132.23 6.00346L132.239 6.13546L132.245 6.31544L132.247 6.40767V7.49577H137.185L137.186 6.81843L137.189 6.57618L137.188 6.3884L137.184 6.16976L137.18 6.05205L137.171 5.86857L137.158 5.68062L137.147 5.55496C136.813 2.24481 134.325 0.971259 131.298 0.749649L131.095 0.736423L130.891 0.726249C130.789 0.721914 130.686 0.718699 130.583 0.716568L130.375 0.71374C130.341 0.71339 130.306 0.71339 130.271 0.71339L130.063 0.71481C130.028 0.715285 129.994 0.71588 129.959 0.716596L129.753 0.722363L129.548 0.731106L129.345 0.74289L129.144 0.757777C129.077 0.763264 129.01 0.769278 128.944 0.775831L128.746 0.797114C128.713 0.800934 128.681 0.804892 128.648 0.808987L128.453 0.835235C128.001 0.900407 127.565 0.993248 127.153 1.11738L126.978 1.1725C125.064 1.80017 123.674 3.13466 123.389 5.55496L123.359 5.82363L123.339 6.03164L123.32 6.24972L123.304 6.46669C123.296 6.60848 123.29 6.74206 123.29 6.85253L123.29 15.2013L123.292 15.305L123.296 15.4625L123.301 15.5729L123.308 15.6908L123.316 15.819L123.328 15.9603L123.35 16.2027L123.368 16.3886C123.645 19.4646 125.977 20.833 128.829 21.1558L129.029 21.1767C129.364 21.2086 129.705 21.2266 130.05 21.2317L130.257 21.2332L130.466 21.2317C130.813 21.2266 131.156 21.2086 131.491 21.1767L131.692 21.1558C134.554 20.833 136.87 19.4646 137.152 16.3886L137.175 16.1174L137.192 15.8879L137.207 15.6307L137.216 15.4092L137.224 15.0956V9.84216H130.289ZM96.2422 1.24082H91.2835V15.7454C91.2913 15.9982 91.2835 16.2822 91.24 16.4904L91.2254 16.5535L91.2073 16.6207C91.2007 16.6437 91.1934 16.6673 91.1854 16.6913L91.1595 16.7649C90.9724 17.2636 90.4959 17.9143 89.3558 17.9143C88.2867 17.9143 87.7986 17.327 87.5941 16.8407L87.5642 16.7649C87.5596 16.7524 87.5551 16.7401 87.5509 16.7278L87.5275 16.6556L87.5082 16.5866C87.5053 16.5754 87.5025 16.5643 87.5 16.5535L87.4863 16.4904C87.4367 16.2822 87.4304 15.9982 87.4367 15.7454V1.24082H82.4795V15.2953L82.4786 15.4083L82.4804 15.6058L82.4873 15.8965L82.5009 16.2498L82.5104 16.4277L82.5168 16.5221L82.5231 16.5916C82.766 19.1918 84.2915 20.5453 86.4458 21.1116L86.6294 21.1576C87.0302 21.2533 87.4515 21.323 87.8893 21.3695L88.0925 21.3894L88.2979 21.406L88.5055 21.4195C88.6099 21.4254 88.715 21.4302 88.8208 21.4339L89.0334 21.4397L89.2479 21.4426C89.2838 21.443 89.3198 21.443 89.3558 21.443L89.5716 21.4415C89.6074 21.441 89.6432 21.4404 89.6788 21.4397L89.8918 21.4339C89.9978 21.4302 90.1031 21.4254 90.2076 21.4195L90.4156 21.406L90.6213 21.3894L90.8248 21.3695C93.725 21.0615 95.9005 19.7412 96.2001 16.5916L96.2041 16.5603L96.2122 16.4777L96.2242 16.3132L96.2349 16.114L96.2408 15.9701L96.2469 15.7493L96.2486 15.6058L96.248 15.471L96.2449 15.3495C96.2441 15.3306 96.2432 15.3125 96.2422 15.2953V1.24082ZM50.6814 1.24082L48.2079 16.5669L45.7358 1.24082H37.7372L37.313 20.8473H42.2132L42.3459 2.697L45.7175 20.8473H50.6892L54.0638 2.697L54.1969 20.8473H59.1095L58.671 1.24082H50.6814ZM21.0668 1.24082L17.4349 20.8473H22.7311L25.468 2.697L28.1392 20.8473H33.3987L29.7819 1.24082H21.0668ZM113.572 17.0264L108.954 1.24082H101.679V20.6429H106.492L106.212 4.35231L111.171 20.6429H118.149V1.24082H113.304L113.572 17.0264ZM69.0512 6.34347C68.9641 5.95627 68.9893 5.54489 69.0344 5.32989C69.0471 5.27283 69.0622 5.2153 69.08 5.15786L69.1087 5.07184C69.3043 4.52829 69.762 4.01772 70.8113 4.01772C71.9437 4.01772 72.6076 4.72366 72.6076 5.78306V6.98193H77.4413V5.61538C77.4413 2.53149 75.423 1.34519 73.2663 0.9294L73.0888 0.896938L72.9109 0.867806L72.7328 0.841867L72.5548 0.818981L72.3771 0.799008L72.1999 0.78181C72.141 0.776525 72.0822 0.771678 72.0235 0.767248L71.8481 0.755183L71.674 0.745475L71.5013 0.737986L71.3303 0.732576L71.1612 0.729107L70.9117 0.727237L70.8017 0.727624L70.583 0.730745C70.5468 0.731527 70.5105 0.732442 70.4744 0.733491L70.2586 0.741386C70.1869 0.744556 70.1157 0.748268 70.0447 0.75253L69.833 0.766975C66.8841 0.992551 64.5828 2.20385 64.1225 5.0444C63.9863 5.90944 63.9526 6.6773 64.1694 7.65715C64.5106 9.2673 65.8519 10.4131 67.3916 11.3741L67.63 11.5205C67.6699 11.5447 67.71 11.5688 67.7501 11.5927L67.9919 11.7352L68.2352 11.8754L68.4794 12.0134L68.8459 12.2169L69.8088 12.7446L70.0427 12.8743L70.2727 13.0036L70.498 13.1327L70.7179 13.2618C71.7673 13.8863 72.6081 14.5197 72.9107 15.2769C73.0781 15.7267 73.0415 16.2938 72.9606 16.6556L72.9467 16.7139C72.9267 16.8009 72.9015 16.8879 72.8699 16.9735L72.8361 17.0585C72.6134 17.5788 72.1266 18.0223 71.057 18.0223C69.837 18.0223 69.1026 17.3209 69.1026 16.2638L69.1011 14.3821H63.8982V15.8778C63.8982 19.3884 66.1255 20.9133 68.915 21.3661L69.1226 21.3977C69.2617 21.4174 69.402 21.4347 69.5434 21.4494L69.7563 21.4697C70.0056 21.4913 70.2578 21.5056 70.5119 21.5131L70.7302 21.5179C70.7666 21.5184 70.8031 21.5188 70.8396 21.5191L70.9492 21.5195C71.0222 21.5195 71.0949 21.519 71.1673 21.5179L71.3836 21.5132C71.4196 21.5121 71.4554 21.511 71.4911 21.5096L71.7048 21.5001C71.7757 21.4963 71.8463 21.4921 71.9165 21.4872L72.1262 21.4711C72.2653 21.4592 72.403 21.4451 72.5391 21.4286L72.7421 21.4022L72.9426 21.3723C73.0091 21.3617 73.0751 21.3506 73.1407 21.3388L73.3361 21.3017C75.6974 20.8286 77.4543 19.5458 77.8071 17.0792C77.8557 16.7113 77.8856 16.3716 77.9017 16.061L77.9104 15.8583C77.9116 15.8253 77.9125 15.7926 77.9134 15.7602L77.9166 15.5706V15.3898L77.9136 15.2179L77.908 15.0549L77.9001 14.9009C77.8986 14.876 77.897 14.8515 77.8954 14.8273L77.8846 14.687L77.8724 14.5559L77.859 14.434L77.8375 14.2686L77.8152 14.1244L77.7862 13.9655L77.7726 13.9005C77.4322 12.1932 75.9374 10.9872 74.2768 9.9945L74.0386 9.85411L73.7987 9.71643L73.5579 9.58128L73.1962 9.38289L72.7165 9.12548L71.8984 8.69036L71.5618 8.50824C71.525 8.48811 71.4884 8.46801 71.452 8.44794L71.2366 8.32781L71.0273 8.20815C69.997 7.61076 69.2182 7.0242 69.0512 6.34347ZM5.28752 6.29539C5.19854 5.92483 5.21245 5.53502 5.2581 5.30851L5.27699 5.2237L5.29844 5.13979C5.46174 4.55104 5.9082 3.94421 7.06217 3.94421C8.20893 3.94421 8.88414 4.65694 8.88414 5.7249V6.93838H13.7746V5.561C13.7746 2.61812 11.9438 1.3822 9.89803 0.898742L9.71964 0.858575C9.57059 0.826644 9.42066 0.79852 9.27046 0.773838L9.09014 0.745849L8.90979 0.721025L8.72966 0.699228L8.54997 0.680317C8.49018 0.674479 8.4305 0.669099 8.37098 0.664153L8.19291 0.650597L8.01599 0.639509L7.84047 0.63075L7.66659 0.62418L7.49457 0.61966L7.24056 0.616211H7.15708C7.08376 0.616211 7.01073 0.616723 6.93799 0.617756L6.72069 0.622426C6.57644 0.626591 6.43344 0.632873 6.29183 0.641337L6.08046 0.655677C6.04541 0.658343 6.01045 0.661147 5.97558 0.664091L5.7675 0.683435C5.69851 0.690447 5.62992 0.698025 5.56172 0.706178L5.35835 0.732368C5.1899 0.755644 5.02405 0.782563 4.86104 0.813254L4.66682 0.851904L4.47543 0.894226L4.28696 0.940269C4.22463 0.956242 4.16281 0.972845 4.10151 0.990084L3.91917 1.04372C2.02124 1.62713 0.653497 2.85073 0.308232 4.9739C0.165737 5.85279 0.141316 6.62595 0.347255 7.61662C0.709819 9.32858 2.18854 10.5208 3.84287 11.5226L4.08611 11.6679C4.12682 11.6919 4.16761 11.7158 4.20847 11.7395L4.45424 11.8812L4.82433 12.0897L5.31701 12.3615L6.04371 12.7597L6.39673 12.9562L6.73992 13.152L6.96216 13.2826C6.99871 13.3043 7.03502 13.3261 7.07106 13.3479L7.28404 13.4789C8.19228 14.0478 8.90362 14.6337 9.1782 15.3207C9.35803 15.7674 9.31598 16.3343 9.231 16.7079L9.21646 16.7683C9.19548 16.8543 9.16971 16.9403 9.13784 17.025L9.1039 17.1092C8.87544 17.6387 8.38514 18.0928 7.30159 18.0928C6.07678 18.0928 5.34416 17.3793 5.34416 16.3076L5.33737 14.4209H0.0761108V15.9201C0.0761108 20.1284 3.249 21.5116 6.76285 21.6155L6.98289 21.6204L7.20365 21.622L7.42195 21.6204C7.53068 21.6189 7.63877 21.6161 7.74617 21.6122L7.96001 21.6028C8.06646 21.5972 8.17217 21.5905 8.2771 21.5825L8.4859 21.5649L8.69252 21.5439C8.76102 21.5364 8.82913 21.5282 8.89686 21.5195L9.09882 21.4917C9.16574 21.4819 9.23224 21.4714 9.29832 21.4604L9.49525 21.4256C11.9405 20.9677 13.7629 19.6706 14.1298 17.1336C14.1803 16.7712 14.2119 16.4359 14.2296 16.1286L14.2393 15.9279L14.2453 15.7356C14.2467 15.6729 14.2475 15.6116 14.2478 15.5517L14.2471 15.3763L14.2437 15.2094L14.2378 15.0512L14.2297 14.9016L14.2198 14.7607L14.2084 14.6286L14.1893 14.4471L14.1687 14.2857L14.1408 14.1022L14.1091 13.9242C13.7699 12.237 12.3197 11.0367 10.6881 10.0495L10.4482 9.90653C10.408 9.88295 10.3678 9.85948 10.3274 9.83612L10.0848 9.69734L9.84123 9.56113L9.59731 9.4273L9.35372 9.29564L8.2789 8.72512L7.93519 8.54091L7.71199 8.4192L7.49428 8.29816L7.28273 8.17758C7.24802 8.15751 7.21359 8.13746 7.17946 8.11741L6.97834 7.99717C6.09031 7.45624 5.43822 6.91504 5.28752 6.29539Z" fill="#1428A0"/>
</svg>
