<svg width="138" height="29" viewBox="0 0 138 29" fill="none" xmlns="http://www.w3.org/2000/svg">
<path d="M25.2282 15.1197L25.2464 15.1211L27.1421 15.3193C27.2751 15.3336 27.3973 15.3985 27.4837 15.5001L27.4978 15.5173L27.4798 15.5263C27.5684 15.6381 27.6074 15.7812 27.5878 15.9226C27.1736 19.2153 25.613 22.257 23.1797 24.5137C20.655 26.8554 17.3387 28.1564 13.8951 28.1564C12.2226 28.1591 10.5643 27.8512 9.00463 27.2485L8.91966 27.2153C8.792 27.1682 8.68943 27.0711 8.63513 26.947L8.62696 26.9272C8.57379 26.8036 8.57083 26.6646 8.6181 26.5394L9.36635 24.7138C9.46774 24.4557 9.75508 24.3257 10.0146 24.4172L10.0318 24.4237C13.8565 25.9004 18.1883 25.0687 21.194 22.2804C23.1072 20.5224 24.3409 18.1475 24.6791 15.5713C24.7149 15.3053 24.9457 15.1118 25.2101 15.1189L25.2282 15.1197ZM69.9987 7.37197C71.6151 7.37197 72.8792 7.86514 73.6865 8.81225L73.7135 8.84435V8.04287C73.7244 7.81915 73.8976 7.63835 74.1187 7.61651L74.1368 7.61509H76.2935C76.5155 7.63043 76.692 7.8051 76.7112 8.02494L76.7124 8.04287V20.0156C76.7821 21.7038 76.2632 23.3638 75.2445 24.7119C74.0827 26.1257 72.3177 26.8416 69.9987 26.8416C66.7749 26.8416 64.2308 24.8019 63.8121 21.8886C63.7913 21.6783 63.9194 21.4828 64.1185 21.4168L64.1363 21.4113L66.2435 20.9161C66.2545 20.9136 66.2656 20.9115 66.2767 20.9099C66.508 20.876 66.7229 21.036 66.7568 21.2673C66.9493 22.9015 68.3538 24.1206 69.9987 24.0815C72.4906 24.0815 73.663 22.8149 73.6862 20.1682L73.6865 20.0875V19.0385C72.7524 20.0861 71.4016 20.665 69.9987 20.6189C66.4146 20.6189 63.8166 17.8362 63.8166 14.0089C63.7838 12.2869 64.3901 10.6138 65.5186 9.31259C66.6648 8.05337 68.2962 7.34672 69.9987 7.37197ZM5.08837 21.9336L5.11509 21.9334L5.14191 21.9336C6.00224 21.9435 6.69494 22.6392 6.70429 23.4963L6.70436 23.5232C6.70436 23.532 6.70426 23.541 6.7041 23.5499C6.68912 24.4276 5.96556 25.1271 5.08785 25.1122C4.21014 25.0972 3.51075 24.3736 3.52558 23.4959C3.54026 22.6361 4.23488 21.9474 5.08837 21.9336ZM107.333 7.20538L107.444 7.2062C111.297 7.25941 113.684 9.94135 113.684 14.234C113.684 14.4612 113.672 14.6881 113.648 14.914C113.628 15.1216 113.458 15.2818 113.252 15.2917L113.234 15.2921H104.075C104.131 17.2157 105.722 18.7377 107.646 18.7097C109.137 18.8035 110.497 17.855 110.924 16.4224C111.002 16.2167 111.224 16.1061 111.433 16.1651L111.45 16.1702L113.278 16.8141C113.38 16.8466 113.462 16.9182 113.509 17.0124L113.517 17.0303C113.567 17.1294 113.576 17.2447 113.54 17.3499C112.691 19.864 110.298 21.5274 107.646 21.4474C105.907 21.4647 104.233 20.7853 102.999 19.5608C101.652 18.1431 100.933 16.2425 101.004 14.2881C101.004 9.89732 104.16 7.25852 107.242 7.20618L107.333 7.20538ZM55.5091 7.20539H55.5135C59.4355 7.20539 61.8714 9.89799 61.8714 14.234C61.8711 14.4612 61.8591 14.6881 61.8354 14.914C61.8172 15.1228 61.6462 15.2841 61.4385 15.2919L61.4211 15.2921H52.2627C52.3191 17.221 53.9174 18.7451 55.8468 18.7098C57.3392 18.8052 58.6993 17.8561 59.1248 16.4224C59.201 16.2151 59.4245 16.1037 59.6346 16.1649L59.6516 16.1702L61.4797 16.8141C61.5865 16.8486 61.6734 16.9273 61.7183 17.0303C61.7611 17.1325 61.7611 17.2477 61.7183 17.3499C60.8699 19.8623 58.4795 21.5254 55.8288 21.4474C54.0869 21.4671 52.4098 20.7875 51.173 19.5608C49.8275 18.1421 49.1087 16.2421 49.1783 14.2881C49.1783 9.85297 52.3977 7.20539 55.5091 7.20539ZM41.6408 7.20084C43.4013 7.20084 44.8242 7.62861 45.8778 8.47056C46.5902 9.03835 47.1183 9.80454 47.3952 10.6724L47.396 10.6759C47.4322 10.8255 47.3443 10.9763 47.1984 11.0196L47.1836 11.0236L44.9998 11.7441C44.9029 11.7825 44.795 11.7825 44.6981 11.7441C44.6154 11.7055 44.5532 11.6333 44.527 11.546L44.5154 11.503C44.3164 10.792 43.6662 9.65032 41.6408 9.65032C40.1999 9.65032 39.3354 10.4788 39.3354 11.2803L39.3357 11.3121C39.3466 11.8332 39.6299 12.4874 40.8726 12.7361L40.9113 12.7437L43.3158 13.1939C45.9725 13.7289 47.5039 15.1728 47.5343 17.1852L47.5348 17.2464L47.5258 17.2104L47.5252 17.2715C47.4865 19.2887 45.5354 21.4113 41.9424 21.4113C37.7324 21.4113 36.08 19.0294 35.7737 17.6246C35.7538 17.4777 35.8434 17.3388 35.9837 17.2956L35.9989 17.2914L38.2503 16.589C38.2905 16.5824 38.3316 16.5824 38.3718 16.589C38.4291 16.588 38.4856 16.6001 38.5373 16.6243L38.5564 16.634C38.6391 16.6736 38.7001 16.7478 38.723 16.8366C39.0067 18.1875 40.2269 18.9934 41.983 18.9934C43.6175 18.9934 44.3604 18.1379 44.3604 17.3634C44.3604 16.5975 43.7129 16.0297 42.5967 15.7952L42.5593 15.7875L40.0333 15.2967C37.6784 14.8509 36.2105 13.3875 36.2105 11.4829C36.2105 9.164 38.7005 7.20084 41.6408 7.20084ZM132.451 3.45012H134.419C134.651 3.46406 134.833 3.65236 134.842 3.88299L134.842 3.90036V7.5971H137.21C137.441 7.61329 137.62 7.80076 137.629 8.02966L137.63 8.04735V10.0105L137.63 10.0276C137.623 10.2477 137.448 10.4265 137.228 10.4377L137.21 10.4383H134.842V17.0077C134.842 18.0973 135.274 18.5477 136.386 18.5477C136.611 18.5438 136.837 18.5267 137.06 18.4965L137.143 18.4846C137.266 18.4638 137.391 18.4985 137.485 18.5792C137.57 18.658 137.621 18.7665 137.629 18.8817L137.63 18.9034V20.754C137.631 20.9425 137.508 21.1096 137.328 21.1637C136.809 21.3089 136.274 21.3818 135.735 21.3805L135.662 21.3798C133.312 21.3798 131.846 19.8838 131.817 17.4641L131.817 17.3905V10.4653H129.768C129.544 10.4522 129.365 10.2769 129.346 10.0556L129.344 10.0375V8.06534C129.344 7.83267 129.521 7.63904 129.75 7.61646L129.768 7.61509L130.318 7.61502L130.377 7.61398C131.02 7.59551 132.008 7.33492 132.028 5.89972L132.028 5.8545V3.90036C132.027 3.6677 132.205 3.47406 132.434 3.45149L132.451 3.45012ZM94.2077 7.20339L94.2592 7.20539H94.2546C96.5728 7.20539 98.9129 8.82052 98.9595 12.348L98.9602 12.4554V20.7945C98.9497 21.0182 98.7758 21.1989 98.555 21.2208L98.537 21.2223H96.38C96.1566 21.209 95.9779 21.0338 95.958 20.8125L95.9567 20.7945V12.7257L95.9563 12.6635C95.9432 11.6354 95.5938 9.98348 93.4761 9.98348C91.9111 9.98348 90.7963 11.2015 90.7742 12.9735L90.7739 13.0273V20.7945C90.7634 21.0182 90.5903 21.1989 90.3687 21.2208L90.3507 21.2223H88.1674C87.9433 21.209 87.7646 21.0338 87.7454 20.8125L87.7442 20.7945V12.7257L87.7438 12.6635C87.7306 11.6354 87.3812 9.98348 85.2628 9.98348C83.6358 9.98348 82.5341 11.1927 82.5122 12.9994L82.5119 13.0544V20.7945C82.5006 21.0182 82.3275 21.1989 82.1067 21.2208L82.0887 21.2223H79.9317C79.7098 21.2069 79.5334 21.0322 79.5143 20.8124L79.5131 20.7945V8.01584C79.5236 7.7937 79.6945 7.61353 79.9138 7.58965L79.9317 7.58806H82.0076C82.2309 7.60122 82.4103 7.77649 82.4296 7.99779L82.4308 8.01584V8.78581C83.3645 7.76206 84.6921 7.18686 86.0776 7.20539C87.6824 7.15836 89.1799 8.0068 89.9637 9.40712C90.8973 7.98074 92.5068 7.14627 94.2077 7.20339ZM126.503 8.79477C127.33 9.88335 127.756 11.2222 127.712 12.5869L127.71 12.6446V20.7945C127.699 21.0166 127.528 21.1968 127.309 21.2207L127.291 21.2223H125.108C124.884 21.209 124.705 21.0338 124.685 20.8125L124.684 20.7945V13.0814C124.684 11.0642 123.734 10.0375 121.933 10.0375C121.137 10.0118 120.377 10.3662 119.884 10.9921C119.407 11.6791 119.161 12.499 119.18 13.3339L119.182 13.383V20.7945C119.171 21.0182 118.998 21.1989 118.777 21.2208L118.759 21.2223H116.579C116.356 21.209 116.177 21.0338 116.157 20.8125L116.156 20.7945V8.0068C116.167 7.78309 116.34 7.60236 116.561 7.58045L116.579 7.57903H118.709C118.931 7.59437 119.108 7.7691 119.127 7.98888L119.128 8.0068V8.90737C120.041 7.80052 121.412 7.17334 122.847 7.20539C124.245 7.14562 125.593 7.73171 126.503 8.79477ZM1.00389 15.6659H16.5067C16.7916 15.6684 17.0217 15.8965 17.0289 16.1792L17.0291 16.1973V18.138C17.0315 18.4228 16.8072 18.6568 16.5248 18.6688L16.5067 18.6692H1.00389C0.718951 18.6668 0.488881 18.4386 0.481567 18.156V18.1379V16.1972V16.1791C0.488728 15.9026 0.709126 15.6783 0.98539 15.6664L1.00389 15.6659ZM70.3725 10.0646C68.2473 10.0646 66.8964 11.5775 66.8964 14.0089C66.8964 16.4404 68.2292 17.9488 70.3725 17.9488C72.4167 17.9488 73.7946 16.3639 73.7946 14.0089C73.7946 11.6495 72.4167 10.0646 70.3725 10.0646ZM52.3585 12.6953L52.3527 12.7437H58.76C58.6041 11.0319 57.3977 9.96451 55.591 9.94334L55.5361 9.94301C53.9441 9.91713 52.5884 11.0815 52.3649 12.6478L52.3585 12.6953ZM104.189 12.6953L104.183 12.7437H110.591C110.435 11.0319 109.228 9.96451 107.422 9.94334L107.367 9.94301C105.775 9.91713 104.419 11.0815 104.195 12.6478L104.189 12.6953ZM18.4474 0.856527C18.5816 0.90495 18.6904 1.00566 18.749 1.13571C18.8028 1.267 18.8028 1.4142 18.749 1.54541L18.0736 3.34655C17.98 3.61361 17.688 3.75456 17.4207 3.66173C13.8824 2.42698 9.95623 3.12854 7.06453 5.51229C5.26239 7.02074 3.98278 9.05998 3.40834 11.3388C3.34888 11.5689 3.14167 11.7299 2.90404 11.7306H2.78696L0.931833 11.2848C0.793516 11.2523 0.674737 11.1643 0.603146 11.0416H0.59411C0.519043 10.919 0.497882 10.7708 0.535647 10.6319C1.27234 7.7148 2.92072 5.10893 5.24092 3.19341C8.93032 0.156057 13.9397 -0.73038 18.4474 0.856527ZM11.5807 8.63722H27.0835C27.3614 8.63949 27.5885 8.85683 27.605 9.13206L27.6059 9.15049V11.0912C27.6082 11.3761 27.3842 11.6101 27.1016 11.6221L27.0835 11.6225H11.5807C11.2977 11.6177 11.0702 11.3904 11.0631 11.1096L11.0629 11.0912V9.16848C11.0604 8.88541 11.2818 8.65228 11.5624 8.63785L11.5807 8.63722ZM22.3427 2.71611L22.3694 2.7159L22.3962 2.71613C23.2566 2.72599 23.9493 3.42165 23.9586 4.27875L23.9587 4.30559C23.9587 4.31455 23.9586 4.3235 23.9584 4.33239C23.9435 5.2101 23.2199 5.90948 22.3422 5.89458C21.4645 5.87967 20.7651 5.15604 20.78 4.2784C20.7946 3.41853 21.4893 2.72985 22.3427 2.71611Z" fill="#4FB58B"/>
</svg>
