<svg width="17" height="14" viewBox="0 0 17 14" fill="none" xmlns="http://www.w3.org/2000/svg">
<g clip-path="url(#clip0_151_34530)">
<path d="M14.7848 2.39729C15.4525 1.99922 15.9866 1.36895 16.2203 0.605985C15.586 0.970881 14.885 1.23626 14.1172 1.40212C13.5163 0.771847 12.6484 0.373779 11.7136 0.373779C9.911 0.373779 8.44217 1.83336 8.44217 3.62466C8.44217 3.89004 8.47555 4.12225 8.54232 4.35445C5.83834 4.22176 3.40142 2.92805 1.76568 0.937708C1.49862 1.43529 1.33171 1.96605 1.33171 2.56315C1.33171 3.69101 1.89921 4.68618 2.80054 5.28328C2.26642 5.25011 1.76568 5.11742 1.29833 4.88521V4.91838C1.29833 6.51065 2.43333 7.83754 3.93554 8.13609C3.66848 8.20244 3.36804 8.23561 3.0676 8.23561C2.8673 8.23561 2.63363 8.20244 2.43333 8.16927C2.8673 9.46299 4.06907 10.425 5.50452 10.425C4.36951 11.2875 2.96745 11.8182 1.43186 11.8182C1.1648 11.8182 0.89774 11.8182 0.664062 11.785C2.13289 12.7139 3.83539 13.2446 5.70481 13.2446C11.747 13.2446 15.0519 8.26878 15.0519 3.95639C15.0519 3.8237 15.0519 3.65784 15.0519 3.52515C15.6862 3.09391 16.2537 2.52998 16.6876 1.86653C16.0867 2.13191 15.4525 2.29777 14.7848 2.39729Z" fill="#872191"/>
</g>
<defs>
<clipPath id="clip0_151_34530">
<rect width="16.0236" height="12.8708" fill="white" transform="translate(0.664062 0.373779)"/>
</clipPath>
</defs>
</svg>
